<svg xmlns="http://www.w3.org/2000/svg" xmlns:xlink="http://www.w3.org/1999/xlink" width="1920" zoomAndPan="magnify" viewBox="0 0 1440 809.999993" height="1080" preserveAspectRatio="xMidYMid meet" version="1.0"><defs><g/></defs><g fill="#ffffff" fill-opacity="1"><g transform="translate(531.937179, 419.624999)"><g><path d="M 13.890625 -18.53125 L 13.890625 0 L 3.359375 0 L 3.359375 -46.203125 L 13.890625 -46.203125 L 13.890625 -27.78125 L 28.78125 -27.78125 L 28.78125 -46.203125 L 39.3125 -46.203125 L 39.3125 0 L 28.78125 0 L 28.78125 -18.53125 Z M 13.890625 -18.53125 "/></g></g></g><g fill="#ffffff" fill-opacity="1"><g transform="translate(577.96322, 419.624999)"><g><path d="M 1.28125 -23.125 C 1.28125 -29.8125 3.554688 -35.46875 8.109375 -40.09375 C 12.671875 -44.726562 18.160156 -47.046875 24.578125 -47.046875 C 31.035156 -47.046875 36.523438 -44.738281 41.046875 -40.125 C 45.566406 -35.507812 47.828125 -29.84375 47.828125 -23.125 C 47.828125 -16.363281 45.601562 -10.675781 41.15625 -6.0625 C 36.71875 -1.457031 31.191406 0.84375 24.578125 0.84375 C 17.828125 0.84375 12.253906 -1.441406 7.859375 -6.015625 C 3.472656 -10.585938 1.28125 -16.289062 1.28125 -23.125 Z M 12.65625 -23.125 C 12.65625 -20.695312 13.023438 -18.484375 13.765625 -16.484375 C 14.515625 -14.492188 15.820312 -12.804688 17.6875 -11.421875 C 19.5625 -10.046875 21.859375 -9.359375 24.578125 -9.359375 C 28.503906 -9.359375 31.460938 -10.703125 33.453125 -13.390625 C 35.453125 -16.078125 36.453125 -19.320312 36.453125 -23.125 C 36.453125 -26.894531 35.4375 -30.132812 33.40625 -32.84375 C 31.375 -35.550781 28.429688 -36.90625 24.578125 -36.90625 C 20.773438 -36.90625 17.835938 -35.550781 15.765625 -32.84375 C 13.691406 -30.132812 12.65625 -26.894531 12.65625 -23.125 Z M 12.65625 -23.125 "/></g></g></g><g fill="#ffffff" fill-opacity="1"><g transform="translate(630.428359, 419.624999)"><g><path d="M 1.28125 -23.125 C 1.28125 -29.8125 3.554688 -35.46875 8.109375 -40.09375 C 12.671875 -44.726562 18.160156 -47.046875 24.578125 -47.046875 C 31.035156 -47.046875 36.523438 -44.738281 41.046875 -40.125 C 45.566406 -35.507812 47.828125 -29.84375 47.828125 -23.125 C 47.828125 -16.363281 45.601562 -10.675781 41.15625 -6.0625 C 36.71875 -1.457031 31.191406 0.84375 24.578125 0.84375 C 17.828125 0.84375 12.253906 -1.441406 7.859375 -6.015625 C 3.472656 -10.585938 1.28125 -16.289062 1.28125 -23.125 Z M 12.65625 -23.125 C 12.65625 -20.695312 13.023438 -18.484375 13.765625 -16.484375 C 14.515625 -14.492188 15.820312 -12.804688 17.6875 -11.421875 C 19.5625 -10.046875 21.859375 -9.359375 24.578125 -9.359375 C 28.503906 -9.359375 31.460938 -10.703125 33.453125 -13.390625 C 35.453125 -16.078125 36.453125 -19.320312 36.453125 -23.125 C 36.453125 -26.894531 35.4375 -30.132812 33.40625 -32.84375 C 31.375 -35.550781 28.429688 -36.90625 24.578125 -36.90625 C 20.773438 -36.90625 17.835938 -35.550781 15.765625 -32.84375 C 13.691406 -30.132812 12.65625 -26.894531 12.65625 -23.125 Z M 12.65625 -23.125 "/></g></g></g><g fill="#ffffff" fill-opacity="1"><g transform="translate(682.893498, 419.624999)"><g><path d="M 3.359375 -46.203125 L 20.21875 -46.203125 C 24.914062 -46.203125 28.722656 -44.988281 31.640625 -42.5625 C 34.554688 -40.132812 36.015625 -36.601562 36.015625 -31.96875 C 36.015625 -27.34375 34.535156 -23.710938 31.578125 -21.078125 C 28.628906 -18.453125 24.84375 -17.140625 20.21875 -17.140625 L 13.890625 -17.140625 L 13.890625 0 L 3.359375 0 Z M 13.890625 -25.53125 L 16.859375 -25.53125 C 19.210938 -25.53125 21.144531 -26.003906 22.65625 -26.953125 C 24.164062 -27.910156 24.921875 -29.472656 24.921875 -31.640625 C 24.921875 -33.835938 24.164062 -35.410156 22.65625 -36.359375 C 21.144531 -37.316406 19.210938 -37.796875 16.859375 -37.796875 L 13.890625 -37.796875 Z M 13.890625 -25.53125 "/></g></g></g><g fill="#ff0000" fill-opacity="1"><g transform="translate(723.550455, 419.624999)"><g><path d="M 42.171875 -46.203125 L 19.265625 -9.234375 L 40.65625 -9.234375 L 40.65625 0 L 0.890625 0 L 23.75 -36.953125 L 4.140625 -36.953125 L 4.140625 -46.203125 Z M 42.171875 -46.203125 "/></g></g></g><g fill="#ff0000" fill-opacity="1"><g transform="translate(769.968444, 419.624999)"><g><path d="M 1.28125 -23.125 C 1.28125 -29.8125 3.554688 -35.46875 8.109375 -40.09375 C 12.671875 -44.726562 18.160156 -47.046875 24.578125 -47.046875 C 31.035156 -47.046875 36.523438 -44.738281 41.046875 -40.125 C 45.566406 -35.507812 47.828125 -29.84375 47.828125 -23.125 C 47.828125 -16.363281 45.601562 -10.675781 41.15625 -6.0625 C 36.71875 -1.457031 31.191406 0.84375 24.578125 0.84375 C 17.828125 0.84375 12.253906 -1.441406 7.859375 -6.015625 C 3.472656 -10.585938 1.28125 -16.289062 1.28125 -23.125 Z M 12.65625 -23.125 C 12.65625 -20.695312 13.023438 -18.484375 13.765625 -16.484375 C 14.515625 -14.492188 15.820312 -12.804688 17.6875 -11.421875 C 19.5625 -10.046875 21.859375 -9.359375 24.578125 -9.359375 C 28.503906 -9.359375 31.460938 -10.703125 33.453125 -13.390625 C 35.453125 -16.078125 36.453125 -19.320312 36.453125 -23.125 C 36.453125 -26.894531 35.4375 -30.132812 33.40625 -32.84375 C 31.375 -35.550781 28.429688 -36.90625 24.578125 -36.90625 C 20.773438 -36.90625 17.835938 -35.550781 15.765625 -32.84375 C 13.691406 -30.132812 12.65625 -26.894531 12.65625 -23.125 Z M 12.65625 -23.125 "/></g></g></g><g fill="#ff0000" fill-opacity="1"><g transform="translate(822.433583, 419.624999)"><g><path d="M 13.890625 -28.671875 L 13.890625 0 L 3.359375 0 L 3.359375 -46.203125 L 13.890625 -46.203125 L 32.25 -17.53125 L 32.375 -17.53125 L 32.375 -46.203125 L 42.890625 -46.203125 L 42.890625 0 L 32.375 0 L 14 -28.671875 Z M 13.890625 -28.671875 "/></g></g></g><g fill="#ff0000" fill-opacity="1"><g transform="translate(872.043124, 419.624999)"><g><path d="M 29.796875 -46.203125 L 29.796875 -36.953125 L 13.890625 -36.953125 L 13.890625 -27.78125 L 29.125 -27.78125 L 29.125 -18.53125 L 13.890625 -18.53125 L 13.890625 -9.234375 L 29.796875 -9.234375 L 29.796875 0 L 3.359375 0 L 3.359375 -46.203125 Z M 29.796875 -46.203125 "/></g></g></g></svg>